<?xml version="1.0" standalone="no"?>
<!DOCTYPE svg PUBLIC "-//W3C//DTD SVG 20010904//EN"
 "http://www.w3.org/TR/2001/REC-SVG-20010904/DTD/svg10.dtd">
<svg version="1.0" xmlns="http://www.w3.org/2000/svg"
 width="296.000000pt" height="296.000000pt" viewBox="0 0 296.000000 296.000000"
 preserveAspectRatio="xMidYMid meet">
<metadata>
Created by potrace 1.14, written by Peter Selinger 2001-2017
</metadata>
<g transform="translate(0.000000,296.000000) scale(0.100000,-0.100000)"
fill="#000000" stroke="none">
<path d="M750 1530 l0 -1400 36 0 c21 0 33 -4 29 -10 -3 -5 -2 -10 4 -10 5 0
11 6 13 12 4 10 9 8 21 -3 9 -9 14 -18 12 -21 -2 -2 4 -4 14 -4 11 0 17 6 14
13 -3 7 -9 11 -13 8 -5 -3 -11 -1 -15 5 -3 5 3 10 14 10 12 0 21 -6 21 -12 0
-9 4 -8 11 2 9 12 10 11 6 -6 -2 -12 1 -21 8 -21 7 0 10 8 7 19 -2 10 1 18 7
18 7 0 9 -5 5 -12 -5 -8 -3 -8 7 -2 17 11 139 13 139 2 0 -4 5 -8 11 -8 5 0 8
4 5 8 -3 5 46 9 109 8 63 0 115 -4 115 -8 0 -4 5 -8 11 -8 5 0 8 4 5 9 -3 5 5
9 18 9 14 0 29 -9 35 -22 11 -21 11 -21 5 2 -3 12 -1 22 5 22 6 0 11 -4 11 -8
0 -5 12 -14 28 -21 l27 -12 -24 19 -23 19 51 0 c41 1 51 -2 52 -16 0 -12 2
-11 9 5 6 15 18 21 42 22 35 2 68 7 99 17 14 5 17 3 13 -9 -3 -9 -9 -14 -13
-12 -4 3 -8 -4 -8 -15 -1 -10 3 -19 8 -19 6 0 8 3 6 8 -7 10 36 63 54 66 22 5
73 27 79 34 3 4 21 16 40 26 19 11 37 22 40 25 3 3 20 20 38 36 l34 30 -12
-26 c-7 -15 -23 -32 -37 -38 -15 -7 -23 -17 -20 -25 3 -7 0 -20 -6 -27 -10
-11 -9 -11 4 -1 9 6 19 10 23 7 3 -3 2 1 -4 7 -14 17 -12 28 5 28 16 0 57 59
52 75 -6 16 26 45 38 35 13 -11 55 -9 55 2 0 5 -11 6 -24 2 -33 -8 -38 6 -18
50 13 29 21 36 37 32 17 -4 18 -3 5 7 -19 14 -14 47 6 47 8 0 14 -5 14 -11 0
-5 -4 -7 -10 -4 -5 3 -10 1 -10 -4 0 -15 17 -14 26 1 4 6 0 16 -9 23 -14 10
-15 17 -4 46 15 45 14 44 32 29 10 -8 15 -9 15 -1 0 6 -5 11 -12 11 -6 0 -3
10 8 22 10 12 13 18 7 14 -8 -4 -13 -1 -13 9 0 9 5 13 11 9 9 -5 -3 28 -16 44
-1 1 -2 -16 -1 -39 0 -28 -4 -44 -13 -47 -8 -3 -11 0 -7 6 4 6 7 27 8 47 1 27
7 39 22 45 17 7 17 9 4 9 -14 1 -17 9 -15 44 1 23 6 48 11 56 6 10 5 12 -2 7
-7 -4 -12 -2 -12 5 0 6 8 9 18 7 11 -3 19 0 19 7 0 7 -9 10 -21 8 -17 -4 -18
-3 -6 6 10 7 11 11 3 11 -7 0 -13 11 -13 25 0 14 5 25 10 25 6 0 10 5 10 11 0
5 -4 8 -9 5 -5 -3 -9 10 -9 29 0 19 4 35 9 35 5 0 9 5 9 11 0 5 -4 8 -9 4 -6
-3 -9 13 -7 37 1 24 -1 48 -6 55 -5 7 -5 14 2 18 7 4 7 13 -1 27 -10 18 -9 20
5 15 9 -4 16 -2 16 3 0 6 -7 10 -16 10 -12 0 -15 7 -12 25 3 14 1 28 -3 31 -5
3 -9 15 -9 28 0 12 -5 27 -11 33 -14 14 -2 36 14 27 7 -4 8 -3 4 2 -5 5 -13 9
-19 9 -6 0 -17 18 -26 40 -9 22 -20 43 -26 47 -6 4 -7 8 -3 8 11 0 -7 21 -77
91 -33 32 -64 59 -69 59 -4 0 -6 4 -3 9 3 5 -2 8 -12 7 -9 0 -16 4 -15 10 1 6
-9 12 -23 12 -14 0 -31 5 -37 12 -9 10 -9 11 1 6 6 -4 12 -4 12 1 0 4 19 17
41 28 23 10 44 25 46 32 3 7 15 13 27 14 11 0 15 3 9 6 -10 3 -10 8 1 19 19
18 36 18 36 0 0 -8 4 -18 10 -21 11 -7 2 23 -12 42 -6 7 -3 15 7 21 9 5 17 13
17 18 1 30 19 53 35 47 16 -6 16 -5 5 9 -11 14 -11 22 2 46 8 16 12 33 8 37
-4 4 0 6 8 3 8 -3 15 -11 15 -19 0 -7 9 -15 20 -16 20 -3 20 -3 0 6 -11 5 -16
10 -12 10 5 1 2 10 -6 22 -15 21 -12 59 4 59 5 0 9 5 9 11 0 5 -4 8 -8 5 -5
-3 -9 1 -9 10 0 9 7 12 19 8 10 -3 18 -1 18 5 0 6 -5 10 -11 8 -6 -1 -13 3
-16 10 -3 8 3 11 18 8 12 -2 18 -1 15 3 -4 4 -13 7 -19 7 -7 0 -12 15 -13 33
0 26 4 32 20 33 16 1 17 2 4 6 -14 3 -17 16 -17 64 0 32 4 57 9 54 13 -8 21
25 10 43 -9 14 -10 13 -5 -5 5 -18 2 -23 -12 -22 -10 0 -13 3 -6 5 7 3 9 12 6
21 -3 8 0 19 8 24 11 7 9 9 -6 9 -17 0 -17 2 -5 10 13 9 13 10 0 10 -13 0 -13
1 0 10 12 8 12 10 1 10 -11 0 -11 3 -1 15 11 13 15 13 21 3 6 -9 9 -9 9 -1 0
6 -5 15 -10 18 -6 4 -7 11 -4 17 4 7 2 8 -5 4 -6 -4 -9 -11 -6 -16 3 -5 1 -11
-4 -14 -5 -4 -9 7 -9 24 1 17 -2 33 -5 37 -4 3 -1 13 6 21 10 13 9 14 -2 8 -9
-6 -12 -5 -9 5 3 8 -1 26 -9 42 -10 20 -10 27 -1 27 6 0 4 6 -7 13 -10 8 -15
19 -11 25 4 7 2 12 -3 12 -6 0 -11 9 -11 20 0 11 -3 20 -8 20 -4 0 -13 13 -20
29 -23 52 -119 138 -195 176 -130 64 -199 72 -644 74 l-393 2 0 -1401z m507
980 c6 -8 15 -12 19 -7 4 4 2 7 -4 7 -7 0 -12 4 -12 9 0 5 25 8 55 8 49 -1 59
-6 57 -29 -1 -3 6 -12 16 -19 14 -11 15 -11 4 1 -10 12 -8 17 10 28 l23 13
-22 -6 c-14 -4 -23 -2 -23 4 0 6 11 11 25 11 22 0 30 -9 26 -32 0 -5 4 -8 10
-8 6 0 9 7 6 15 -4 8 -2 17 3 20 6 4 10 1 10 -5 0 -7 6 -10 13 -7 16 6 67 -21
90 -47 52 -58 64 -122 62 -321 -2 -172 -17 -235 -68 -286 -52 -53 -88 -63
-234 -66 l-132 -3 1 32 c1 18 6 36 12 40 8 5 7 8 -1 8 -7 0 -13 5 -13 11 0 5
5 7 10 4 6 -3 10 -1 10 4 0 6 -4 11 -9 11 -5 0 -8 11 -8 25 0 13 3 22 8 19 5
-3 9 0 9 5 0 6 -6 11 -12 11 -9 0 -8 4 2 10 8 5 10 10 3 10 -8 0 -11 32 -10
108 1 84 4 110 16 119 9 6 13 15 8 19 -4 4 -7 2 -7 -4 0 -7 -4 -12 -8 -12 -5
0 -9 29 -9 65 0 42 3 65 11 65 6 0 4 4 -4 10 -8 5 -11 12 -7 16 3 4 13 2 20
-4 10 -9 14 -8 14 3 0 7 -3 14 -6 13 -19 -2 -31 3 -31 13 0 6 10 8 23 5 l22
-6 -22 11 c-13 7 -23 16 -23 21 0 12 14 10 28 -4 9 -9 12 -9 12 -1 0 7 -8 14
-18 17 -14 5 -19 17 -19 51 -1 41 1 44 26 42 14 -1 31 -9 38 -17z m-17 -1150
c14 -7 22 -9 18 -5 -4 4 0 14 10 21 13 9 19 9 24 1 6 -9 8 -9 8 1 0 18 20 15
37 -5 14 -17 14 -17 9 0 -3 9 -1 17 5 17 6 0 13 -9 16 -20 3 -11 9 -20 15 -20
5 0 4 9 -2 20 -9 16 -8 20 5 20 10 0 13 -5 9 -12 -6 -10 -4 -10 7 0 19 17 29
15 29 -8 0 -11 4 -20 9 -20 5 0 7 10 5 23 -2 12 -2 17 2 10 3 -7 11 -10 17 -7
19 6 72 -12 70 -25 -2 -6 2 -11 7 -11 6 0 10 5 10 11 0 5 5 7 10 4 6 -4 7 -11
4 -17 -4 -6 -3 -8 3 -5 15 9 49 -31 75 -88 22 -48 23 -60 23 -305 0 -280 -3
-297 -64 -357 -43 -44 -93 -54 -248 -52 -135 1 -163 8 -163 38 0 16 11 13 27
-6 13 -16 13 -16 3 5 -6 12 -15 22 -20 22 -6 0 -10 7 -10 15 0 20 10 19 26 -3
13 -16 14 -16 8 1 -5 14 -2 16 12 11 11 -4 16 -4 12 0 -5 7 -26 13 -50 15 -5
1 -8 6 -8 12 0 6 7 9 15 6 8 -4 17 -1 21 5 4 7 3 8 -4 4 -7 -4 -12 -2 -12 4 0
6 -5 8 -11 5 -6 -4 -9 0 -7 11 2 11 11 24 22 30 17 10 17 12 2 17 -10 4 -15 3
-11 -3 3 -6 2 -10 -4 -10 -15 0 -9 44 9 57 8 6 12 15 7 19 -4 4 -7 2 -7 -4 0
-7 -4 -12 -8 -12 -5 0 -9 29 -9 65 0 42 3 65 11 65 6 0 4 4 -4 10 -8 5 -11 12
-7 16 3 4 13 2 20 -4 10 -9 14 -8 14 3 0 7 -3 14 -6 13 -21 -2 -28 5 -28 27 0
13 3 22 8 19 5 -3 9 0 9 5 0 6 -6 11 -12 11 -9 0 -8 4 2 10 8 5 10 10 3 10 -8
0 -11 32 -10 108 1 84 4 110 16 119 9 6 13 15 8 19 -4 4 -7 2 -7 -4 0 -7 -4
-12 -9 -12 -5 0 -8 11 -8 25 0 21 2 23 13 14 12 -10 13 -9 8 5 -3 9 -10 16
-15 16 -5 0 -7 17 -5 38 6 50 5 49 14 36 4 -6 18 -17 32 -24z m17 19 c-14 -8
-22 -8 -30 0 -8 8 -3 11 19 11 25 -1 27 -2 11 -11z"/>
<path d="M1214 2501 c16 -18 36 -20 36 -5 0 3 -4 2 -10 -1 -5 -3 -10 -2 -10 3
0 6 -8 13 -17 16 -15 6 -15 5 1 -13z"/>
<path d="M1293 2503 c4 -3 1 -13 -6 -22 -11 -14 -10 -14 5 -2 16 12 16 31 1
31 -4 0 -3 -3 0 -7z"/>
<path d="M1200 2480 c0 -5 5 -10 11 -10 5 0 7 5 4 10 -3 6 -8 10 -11 10 -2 0
-4 -4 -4 -10z"/>
<path d="M1516 2482 c-3 -5 1 -9 9 -9 8 0 12 4 9 9 -3 4 -7 8 -9 8 -2 0 -6 -4
-9 -8z"/>
<path d="M1210 2330 c-8 -5 -12 -12 -9 -15 4 -3 12 1 19 10 14 17 11 19 -10 5z"/>
<path d="M1210 2287 c-10 -19 -9 -20 2 -6 7 9 19 14 26 12 17 -6 15 4 -3 11
-9 3 -19 -3 -25 -17z"/>
<path d="M1215 2259 c-4 -6 -4 -13 -1 -16 3 -4 6 -1 6 6 0 7 5 9 12 5 7 -4 8
-3 4 4 -9 15 -13 15 -21 1z"/>
<path d="M1233 2215 c0 -8 4 -12 9 -9 5 3 6 10 3 15 -9 13 -12 11 -12 -6z"/>
<path d="M1216 2178 c3 -5 10 -6 15 -3 13 9 11 12 -6 12 -8 0 -12 -4 -9 -9z"/>
<path d="M1226 2137 c3 -10 9 -15 12 -12 3 3 0 11 -7 18 -10 9 -11 8 -5 -6z"/>
<path d="M1207 2096 c-3 -8 1 -22 9 -33 14 -17 15 -17 6 2 -5 11 -7 26 -5 33
6 17 -4 15 -10 -2z"/>
<path d="M1200 2044 c0 -20 27 -37 36 -23 4 7 3 9 -4 5 -6 -3 -15 2 -21 11 -6
10 -11 13 -11 7z"/>
<path d="M1200 2001 c0 -5 7 -12 16 -15 14 -5 15 -4 4 9 -14 17 -20 19 -20 6z"/>
<path d="M1210 1920 c0 -5 5 -10 10 -10 6 0 10 5 10 10 0 6 -4 10 -10 10 -5 0
-10 -4 -10 -10z"/>
<path d="M1235 1880 c-3 -5 -1 -10 4 -10 6 0 11 5 11 10 0 6 -2 10 -4 10 -3 0
-8 -4 -11 -10z"/>
<path d="M1200 1839 c0 -5 5 -7 10 -4 6 3 10 8 10 11 0 2 -4 4 -10 4 -5 0 -10
-5 -10 -11z"/>
<path d="M1210 1815 c-11 -13 -10 -14 4 -9 9 3 16 10 16 15 0 13 -6 11 -20 -6z"/>
<path d="M1306 1363 c-6 -14 -5 -15 5 -6 7 7 10 15 7 18 -3 3 -9 -2 -12 -12z"/>
<path d="M1475 1360 c3 -5 8 -10 11 -10 2 0 4 5 4 10 0 6 -5 10 -11 10 -5 0
-7 -4 -4 -10z"/>
<path d="M1206 1343 c-6 -14 -5 -15 5 -6 7 7 10 15 7 18 -3 3 -9 -2 -12 -12z"/>
<path d="M1270 1349 c0 -5 5 -7 10 -4 6 3 10 8 10 11 0 2 -4 4 -10 4 -5 0 -10
-5 -10 -11z"/>
<path d="M1220 1322 c0 -4 9 -8 19 -8 11 0 17 4 15 8 -3 4 -12 8 -20 8 -8 0
-14 -4 -14 -8z"/>
<path d="M1233 1255 c0 -8 4 -12 9 -9 5 3 6 10 3 15 -9 13 -12 11 -12 -6z"/>
<path d="M1216 1218 c3 -5 10 -6 15 -3 13 9 11 12 -6 12 -8 0 -12 -4 -9 -9z"/>
<path d="M1226 1177 c3 -10 9 -15 12 -12 3 3 0 11 -7 18 -10 9 -11 8 -5 -6z"/>
<path d="M1207 1136 c-3 -8 1 -22 9 -33 14 -17 15 -17 6 2 -5 11 -7 26 -5 33
6 17 -4 15 -10 -2z"/>
<path d="M1200 1084 c0 -20 27 -37 36 -23 4 7 3 9 -4 5 -6 -3 -15 2 -21 11 -6
10 -11 13 -11 7z"/>
<path d="M1200 1041 c0 -5 7 -12 16 -15 14 -5 15 -4 4 9 -14 17 -20 19 -20 6z"/>
<path d="M1210 960 c0 -5 5 -10 10 -10 6 0 10 5 10 10 0 6 -4 10 -10 10 -5 0
-10 -4 -10 -10z"/>
<path d="M1210 890 c-8 -5 -12 -12 -9 -15 4 -3 12 1 19 10 14 17 11 19 -10 5z"/>
<path d="M1210 847 c-10 -19 -9 -20 2 -6 7 9 19 14 26 12 17 -6 15 4 -3 11 -9
3 -19 -3 -25 -17z"/>
<path d="M1215 819 c-4 -6 -4 -13 -1 -16 3 -4 6 -1 6 6 0 7 5 9 12 5 7 -4 8
-3 4 4 -9 15 -13 15 -21 1z"/>
<path d="M1233 775 c0 -8 4 -12 9 -9 5 3 6 10 3 15 -9 13 -12 11 -12 -6z"/>
<path d="M1216 738 c3 -5 10 -6 15 -3 13 9 11 12 -6 12 -8 0 -12 -4 -9 -9z"/>
<path d="M1215 691 c-3 -5 -2 -12 3 -15 5 -3 9 1 9 9 0 17 -3 19 -12 6z"/>
<path d="M2070 2461 c0 -6 4 -12 8 -15 5 -3 9 1 9 9 0 8 -4 15 -9 15 -4 0 -8
-4 -8 -9z"/>
<path d="M2090 2356 c0 -8 4 -17 9 -20 5 -4 7 3 4 14 -6 23 -13 26 -13 6z"/>
<path d="M2080 2224 c0 -6 6 -17 14 -23 10 -9 17 -7 27 6 13 16 12 17 -3 5
-14 -11 -18 -10 -27 5 -6 10 -11 13 -11 7z"/>
<path d="M2096 2162 c-3 -5 1 -9 9 -9 8 0 15 4 15 9 0 4 -4 8 -9 8 -6 0 -12
-4 -15 -8z"/>
<path d="M2073 2095 c0 -8 4 -15 9 -15 4 0 8 4 8 9 0 6 -4 12 -8 15 -5 3 -9
-1 -9 -9z"/>
<path d="M2064 1968 c-10 -13 -12 -17 -4 -11 11 10 17 10 29 0 14 -10 14 -10
3 5 -10 13 -10 17 0 21 7 3 8 6 2 6 -6 1 -19 -9 -30 -21z"/>
<path d="M2070 1941 c0 -10 19 -25 25 -20 1 2 -3 10 -11 17 -8 7 -14 8 -14 3z"/>
<path d="M2040 1880 c14 -9 7 -14 -13 -11 -5 1 -6 -3 -2 -9 4 -6 13 -5 25 2
14 9 16 14 7 20 -7 4 -16 8 -22 8 -5 0 -3 -5 5 -10z"/>
<path d="M2013 1809 c-18 -12 -33 -23 -33 -26 0 -2 5 -1 10 2 6 4 20 -4 31
-17 l21 -23 -16 25 c-15 23 -15 26 6 42 31 24 20 22 -19 -3z"/>
<path d="M2040 1800 c-9 -6 -10 -10 -3 -10 6 0 15 5 18 10 8 12 4 12 -15 0z"/>
<path d="M1995 1760 c6 -10 4 -12 -9 -7 -10 4 -15 3 -11 -3 8 -13 35 -13 35
-1 0 6 -5 13 -12 17 -7 5 -8 3 -3 -6z"/>
<path d="M1940 1716 c0 -8 4 -17 9 -20 5 -4 7 3 4 14 -6 23 -13 26 -13 6z"/>
<path d="M1920 1680 c0 -5 5 -10 10 -10 6 0 10 5 10 10 0 6 -4 10 -10 10 -5 0
-10 -4 -10 -10z"/>
<path d="M1959 1673 c-13 -16 -12 -17 4 -4 16 13 21 21 13 21 -2 0 -10 -8 -17
-17z"/>
<path d="M1876 1655 c-10 -8 -22 -12 -27 -10 -4 3 -11 0 -15 -7 -4 -7 -4 -10
1 -6 4 4 14 0 22 -10 14 -16 14 -16 9 2 -5 14 -2 17 11 12 10 -4 14 -4 10 0
-4 4 1 13 11 20 9 7 13 13 7 13 -5 0 -19 -6 -29 -14z"/>
<path d="M1918 1643 c7 -3 16 -2 19 1 4 3 -2 6 -13 5 -11 0 -14 -3 -6 -6z"/>
<path d="M2135 1141 c-3 -5 -2 -12 3 -15 5 -3 9 1 9 9 0 17 -3 19 -12 6z"/>
<path d="M2120 1096 c7 -7 14 -6 21 1 9 9 7 12 -9 10 -14 -1 -18 -5 -12 -11z"/>
<path d="M2136 1018 c3 -4 11 -5 19 -1 21 7 19 12 -4 10 -11 0 -18 -5 -15 -9z"/>
<path d="M2129 973 c-12 -16 -12 -17 1 -7 8 6 22 14 30 17 13 5 12 6 -1 6 -9
1 -23 -7 -30 -16z"/>
<path d="M2136 938 c3 -5 10 -6 15 -3 13 9 11 12 -6 12 -8 0 -12 -4 -9 -9z"/>
<path d="M2146 897 c3 -10 9 -15 12 -12 3 3 0 11 -7 18 -10 9 -11 8 -5 -6z"/>
<path d="M2120 888 c0 -9 7 -19 16 -22 15 -6 15 -4 3 11 -7 10 -15 20 -16 22
-2 2 -3 -3 -3 -11z"/>
<path d="M2134 799 c-3 -6 -1 -16 5 -22 9 -9 10 -7 5 7 -6 15 -4 17 6 11 9 -5
11 -4 6 3 -9 15 -13 15 -22 1z"/>
<path d="M2127 759 c7 -7 15 -10 18 -7 3 3 -2 9 -12 12 -14 6 -15 5 -6 -5z"/>
<path d="M2135 680 c3 -5 8 -10 11 -10 2 0 4 5 4 10 0 6 -5 10 -11 10 -5 0 -7
-4 -4 -10z"/>
<path d="M2103 563 c4 -3 -1 -15 -10 -25 -16 -18 -16 -18 0 -12 9 3 17 11 17
16 0 6 8 4 18 -3 14 -11 13 -10 -2 9 -11 12 -21 22 -24 22 -3 0 -2 -3 1 -7z"/>
<path d="M2094 455 c-3 -8 -4 -20 -1 -27 3 -7 6 -3 6 9 1 16 6 21 16 17 8 -4
15 -4 15 -1 0 13 -31 15 -36 2z"/>
<path d="M2045 430 c-3 -5 -4 -14 0 -19 3 -5 1 -12 -5 -16 -5 -3 -10 -11 -10
-18 0 -22 21 10 24 37 3 28 1 32 -9 16z"/>
<path d="M2010 330 c6 -11 13 -20 16 -20 2 0 0 9 -6 20 -6 11 -13 20 -16 20
-2 0 0 -9 6 -20z"/>
<path d="M1981 283 c-11 -27 -10 -27 4 -8 9 11 24 19 33 17 15 -2 15 -1 2 7
-22 15 -26 14 -39 -16z"/>
<path d="M1940 240 c-12 -7 -10 -9 8 -7 12 0 22 5 22 9 0 11 -12 10 -30 -2z"/>
<path d="M1866 225 c-10 -8 -24 -16 -30 -18 -6 -2 -8 -8 -4 -12 4 -4 14 0 22
8 9 8 21 17 28 20 7 2 11 7 8 10 -3 3 -14 -1 -24 -8z"/>
<path d="M1868 193 c6 -2 10 -9 7 -14 -4 -5 1 -6 10 -2 13 5 14 7 3 14 -7 5
-17 8 -23 8 -5 0 -4 -3 3 -6z"/>
<path d="M1810 181 c0 -5 5 -13 10 -16 6 -3 10 -2 10 4 0 5 -4 13 -10 16 -5 3
-10 2 -10 -4z"/>
<path d="M1793 162 c2 -12 6 -24 10 -28 3 -4 4 4 2 16 -6 30 -16 40 -12 12z"/>
<path d="M1851 164 c0 -11 3 -14 6 -6 3 7 2 16 -1 19 -3 4 -6 -2 -5 -13z"/>
<path d="M1731 156 c-15 -18 -23 -58 -10 -50 6 3 8 9 5 12 -4 3 1 16 9 29 17
25 14 31 -4 9z"/>
<path d="M1762 154 c-7 -8 -9 -14 -5 -14 4 0 1 -5 -7 -10 -9 -6 -10 -10 -3
-10 7 0 17 9 23 21 14 25 10 32 -8 13z"/>
<path d="M1651 124 c0 -11 3 -14 6 -6 3 7 2 16 -1 19 -3 4 -6 -2 -5 -13z"/>
<path d="M1553 125 c15 -13 48 -25 43 -16 -4 6 0 11 8 11 10 0 13 -6 9 -17 -6
-19 -5 -18 14 8 11 13 7 15 -32 15 -25 1 -44 0 -42 -1z"/>
<path d="M985 107 c-15 -12 -16 -15 -4 -22 8 -5 10 -4 6 0 -4 5 3 15 15 22 13
7 18 12 12 13 -5 0 -18 -6 -29 -13z"/>
<path d="M1035 109 c-4 -6 -5 -12 -2 -15 2 -3 7 2 10 11 7 17 1 20 -8 4z"/>
<path d="M1195 109 c-4 -6 -5 -12 -2 -15 2 -3 7 2 10 11 7 17 1 20 -8 4z"/>
<path d="M1226 107 c-17 -12 -17 -14 1 -27 15 -12 16 -12 5 0 -10 12 -8 16 10
27 13 7 18 12 12 13 -5 0 -18 -6 -28 -13z"/>
<path d="M1275 109 c-4 -6 -5 -12 -2 -15 2 -3 7 2 10 11 7 17 1 20 -8 4z"/>
<path d="M1476 107 c3 -10 9 -15 12 -12 3 3 0 11 -7 18 -10 9 -11 8 -5 -6z"/>
<path d="M1055 99 c-4 -6 -5 -12 -2 -15 2 -3 7 2 10 11 7 17 1 20 -8 4z"/>
<path d="M1131 103 c3 -20 -2 -27 -11 -13 -6 9 -10 10 -10 3 0 -19 17 -24 29
-9 9 10 9 16 1 21 -6 4 -10 3 -9 -2z"/>
<path d="M1295 99 c-4 -6 -5 -12 -2 -15 2 -3 7 2 10 11 7 17 1 20 -8 4z"/>
<path d="M1371 103 c3 -20 -2 -27 -11 -13 -6 9 -10 10 -10 3 0 -19 17 -24 29
-9 9 10 9 16 1 21 -6 4 -10 3 -9 -2z"/>
<path d="M1550 100 c0 -5 5 -10 11 -10 5 0 7 5 4 10 -3 6 -8 10 -11 10 -2 0
-4 -4 -4 -10z"/>
<path d="M1075 89 c-4 -6 -5 -12 -2 -15 2 -3 7 2 10 11 7 17 1 20 -8 4z"/>
<path d="M1315 89 c-4 -6 -5 -12 -2 -15 2 -3 7 2 10 11 7 17 1 20 -8 4z"/>
</g>
</svg>
